PathFileType	4	(X/Y/Z)	C:\Users\Graham\Documents\MATLAB\MOtoNMS_v2_2\MyData\ElaboratedData\S2\17-05-16\staticElaborations\Static1\Static1\\Static1.trc
DataRate	CameraRate	NumFrames	NumMarkers	Units	OrigDataRate	DataStartFrame
100	100	5	38	mm	100	2
Frame#	Time	V_Sacral			R_ASIS			L_ASIS			R_Knee_Lat			R_Knee_Med			R_Thigh_Upper			R_Thigh_Front			R_Thigh_Rear			L_Knee_Lat			L_Knee_Med			L_Thigh_Upper			L_Thigh_Front			L_Thigh_Rear			R_Ankle_Lat			R_Ankle_Med			R_Shank_Upper			R_Shank_Front			R_Shank_Rear			L_Ankle_Lat			L_Ankle_Med			L_Shank_Upper			L_Shank_Front			L_Shank_Rear			R_Heel			R_MTP1			R_MTP5			L_Heel			L_MTP1			L_MTP5			Clavicle			R_Acromium			L_Acromium			LAJC			RAJC			LHJC			RHJC			LKJC			RKJC		
		X1	Y1	Z1	X2	Y2	Z2	X3	Y3	Z3	X4	Y4	Z4	X5	Y5	Z5	X6	Y6	Z6	X7	Y7	Z7	X8	Y8	Z8	X9	Y9	Z9	X10	Y10	Z10	X11	Y11	Z11	X12	Y12	Z12	X13	Y13	Z13	X14	Y14	Z14	X15	Y15	Z15	X16	Y16	Z16	X17	Y17	Z17	X18	Y18	Z18	X19	Y19	Z19	X20	Y20	Z20	X21	Y21	Z21	X22	Y22	Z22	X23	Y23	Z23	X24	Y24	Z24	X25	Y25	Z25	X26	Y26	Z26	X27	Y27	Z27	X28	Y28	Z28	X29	Y29	Z29	X30	Y30	Z30	X31	Y31	Z31	X32	Y32	Z32	X33	Y33	Z33	X34	Y34	Z34	X35	Y35	Z35	X36	Y36	Z36	X37	Y37	Z37	X38	Y38	Z38	

206	2.050000	156.206701	1005.267829	28.129650	362.151407	1018.387297	149.466131	352.655048	1027.183817	-85.960502	234.639114	519.031921	217.288109	241.692703	513.472479	108.712768	378.905298	742.112867	169.556100	333.450473	637.552594	139.668899	317.987077	649.507569	200.848039	251.207373	535.169801	-146.607778	244.130152	509.399037	-36.346743	354.908645	782.777288	-139.169827	350.433243	667.262822	-112.359221	297.819651	671.479580	-159.363996	187.820680	106.753294	244.157278	219.983578	107.742840	158.968805	265.410710	374.370260	219.957920	255.039922	258.491937	187.212483	213.630136	262.377390	253.623685	212.948416	90.903707	-182.674456	252.801678	113.363515	-101.614756	276.073515	357.001393	-163.107740	271.363891	245.543996	-129.157559	224.692002	250.508050	-190.264739	123.280064	62.950488	194.031572	354.757826	67.641307	200.257140	333.699334	51.261679	282.505693	147.207737	63.789265	-129.743469	388.540742	64.298967	-158.045369	354.519945	50.275267	-235.523663	327.196082	1393.500903	30.079152	228.696152	1442.402057	224.050641	262.407852	1442.681063	-173.487625	232.875047	102.133611	-142.144606	203.902129	107.248067	201.563042	303.003176	939.516428	-54.400828	309.858802	933.166031	115.558731	247.668763	522.284419	-91.477260	238.165909	516.252200	163.000439	
207	2.060000	156.154317	1005.263556	28.123923	362.082810	1018.397945	149.482568	352.619566	1027.192520	-85.946458	234.624819	519.024360	217.299069	241.569215	513.361634	108.663221	378.865159	742.124649	169.576478	333.425472	637.555812	139.683639	317.949938	649.506767	200.864072	251.186372	535.172276	-146.606584	244.114994	509.401304	-36.341915	354.878182	782.783642	-139.150601	350.399569	667.269541	-112.343924	297.791270	671.486250	-159.355401	187.818764	106.749807	244.161195	219.981894	107.742060	158.971746	265.404489	374.365849	219.965397	254.948949	258.429858	187.229362	213.628386	262.369967	253.630717	212.946750	90.904819	-182.675472	252.812621	113.374822	-101.592227	276.061421	357.001943	-163.108803	271.358604	245.543710	-129.157200	224.683321	250.504643	-190.262272	123.279466	62.948946	194.034725	354.751037	67.636707	200.257433	333.699244	51.260518	282.507917	147.206520	63.789405	-129.744717	388.541553	64.299524	-158.043679	354.520177	50.277191	-235.522323	327.149139	1393.505263	30.118088	228.592980	1442.370348	224.079648	262.396350	1442.711741	-173.454441	232.879685	102.139821	-142.133850	203.900329	107.245934	201.566470	302.968595	939.521656	-54.393225	309.800312	933.172665	115.568000	247.650683	522.286790	-91.474250	238.097017	516.192997	162.981145	
208	2.070000	156.103599	1005.261195	28.118854	362.017931	1018.408883	149.498224	352.585380	1027.200809	-85.933810	234.609182	519.016696	217.311066	241.435016	513.242670	108.606635	378.827948	742.134774	169.594077	333.398165	637.557541	139.696327	317.912829	649.504733	200.878439	251.165166	535.175064	-146.605673	244.102254	509.403076	-36.339028	354.847206	782.790254	-139.133417	350.366047	667.276209	-112.331394	297.761186	671.493185	-159.347450	187.816696	106.745928	244.165536	219.979992	107.741734	158.974465	265.397222	374.361658	219.973340	254.885505	258.387413	187.242600	213.626001	262.362218	253.638213	212.945236	90.905860	-182.676595	252.822265	113.384805	-101.573118	276.049412	357.002538	-163.110836	271.353735	245.543412	-129.157829	224.673873	250.501284	-190.259723	123.278296	62.948128	194.037058	354.745638	67.633082	200.256960	333.698473	51.258977	282.510137	147.205702	63.789815	-129.745093	388.542200	64.299666	-158.042357	354.520314	50.279210	-235.521041	327.100116	1393.508383	30.158652	228.491342	1442.340093	224.110605	262.381894	1442.740633	-173.419256	232.883751	102.145332	-142.124856	203.898344	107.243831	201.570000	302.934632	939.526856	-54.386073	309.744187	933.179782	115.577220	247.633710	522.289070	-91.472351	238.022099	516.129683	162.958851	
209	2.080000	156.054060	1005.260688	28.114123	361.955944	1018.419840	149.512666	352.551594	1027.208871	-85.922942	234.592066	519.009231	217.323423	241.302355	513.127201	108.548094	378.793227	742.143616	169.608735	333.368527	637.558218	139.706727	317.875708	649.501918	200.890735	251.144881	535.178144	-146.605179	244.093582	509.404424	-36.338164	354.815650	782.797492	-139.119265	350.333926	667.283077	-112.323105	297.729870	671.500602	-159.340581	187.814699	106.741779	244.170153	219.977815	107.741741	158.976892	265.388795	374.357809	219.981300	254.858642	258.370831	187.250615	213.622746	262.354358	253.645798	212.944040	90.906870	-182.677901	252.829790	113.392665	-101.559335	276.038590	357.002965	-163.113866	271.349785	245.543023	-129.159431	224.664441	250.498134	-190.257265	123.276684	62.948066	194.038396	354.742292	67.630950	200.255817	333.696890	51.257206	282.512249	147.205354	63.790604	-129.744562	388.542688	64.299428	-158.041565	354.520444	50.281141	-235.519968	327.048637	1393.509999	30.200925	228.391993	1442.312085	224.143483	262.364759	1442.767336	-173.382005	232.886915	102.149767	-142.118618	203.896257	107.241760	201.573522	302.900512	939.532158	-54.379920	309.689702	933.187179	115.585809	247.619231	522.291284	-91.471671	237.947210	516.068216	162.935758	
210	2.090000	156.005217	1005.261810	28.109511	361.895977	1018.430500	149.525600	352.517256	1027.216867	-85.914096	234.573345	519.002268	217.335502	241.181507	513.024703	108.491759	378.760378	742.151529	169.620480	333.336543	637.558300	139.714777	317.838494	649.498788	200.900690	251.126473	535.181467	-146.605329	244.090284	509.405496	-36.339187	354.783411	782.805691	-139.108866	350.304202	667.290396	-112.320168	297.697780	671.508684	-159.335157	187.813039	106.737521	244.174896	219.975352	107.741909	158.979047	265.379180	374.354450	219.988908	254.871789	258.382477	187.252648	213.618464	262.346611	253.653120	212.943318	90.907862	-182.679436	252.834883	113.398112	-101.551649	276.029884	357.002965	-163.117852	271.347130	245.542441	-129.161893	224.655742	250.495268	-190.255065	123.274831	62.948675	194.038704	354.741304	67.630624	200.254242	333.694458	51.255384	282.514159	147.205472	63.791815	-129.743237	388.542966	64.298932	-158.041382	354.520648	50.282812	-235.519226	326.994388	1393.509767	30.245030	228.295547	1442.286700	224.178307	262.345337	1442.791657	-173.342498	232.889100	102.152987	-142.115543	203.894195	107.239715	201.576972	302.865473	939.537628	-54.375184	309.636155	933.194578	115.593313	247.608379	522.293482	-91.472258	237.877426	516.013486	162.913630	
